<?xml version="1.0" encoding="UTF-8"?>
<!-- Generator: Adobe Illustrator 25.0.1, SVG Export Plug-In . SVG Version: 6.00 Build 0)  -->
<svg xmlns="http://www.w3.org/2000/svg" xmlns:xlink="http://www.w3.org/1999/xlink" version="1.0" id="Capa_1" x="0px" y="0px" viewBox="0 0 822.23 154.02" style="enable-background:new 0 0 822.23 154.02;" xml:space="preserve">
<style type="text/css">
	.st0{fill:#FFFFFF;}
</style>
<g>
	<g>
		<path class="st0" d="M571.67,88.84c-2.57,0.66-5.56,1.28-8.96,1.85c-3.39,0.57-6.83,0.98-10.34,1.23    c-0.87,0.09-1.73,0.13-2.63,0.17c-0.9,0.04-1.72,0.07-2.47,0.07c-14.4-0.03-25.91-3.81-34.56-11.38    c-8.64-7.58-11.46-19.07-8.46-34.52c2.82-14.54,10.12-25.4,21.88-32.59c11.74-7.25,24.57-10.82,38.46-10.81    c2.37,0,4.5,0.06,6.4,0.19c1.92,0.13,3.82,0.37,5.69,0.69c1.65,0.18,3.37,0.42,5.15,0.75c1.79,0.32,3.7,0.71,5.73,1.12    l-4.42,22.75c-2.51-0.92-5.09-1.68-7.75-2.32c-2.67-0.62-5.37-0.94-8.14-0.94c-7.08-0.01-13.36,1.83-18.85,5.5    c-5.46,3.66-8.89,9.07-10.26,16.15c-1.45,7.44-0.3,13.05,3.44,16.82c3.72,3.75,9.03,5.64,15.94,5.64c1.44,0,2.94-0.07,4.53-0.21    c1.6-0.18,3.13-0.38,4.59-0.63c1.59-0.32,3.16-0.7,4.71-1.11c1.55-0.41,3.14-0.87,4.76-1.36L571.67,88.84z"></path>
		<polygon class="st0" points="701.51,4.38 750.5,4.46 752.66,51.85 752.92,51.85 773.24,4.49 822.23,4.56 805.44,91.16     775.62,91.11 788.32,23.15 788.06,23.15 757.95,91.08 730.3,91.06 726.94,23.07 726.42,23.06 712.86,91.04 684.7,90.98   "></polygon>
		<g>
			<path class="st0" d="M668.95,30.54l0.84,0.46l0.72-0.08l-0.16-1.39l2.26-0.49l2.36,1.36l3.57-0.42l0.23-0.26     c-0.5-1.15-1.05-2.29-1.63-3.4l-2.32,0.31l-1.33-1.14l-0.46-2.03l-1.12,0.78l-0.35,2.6l-1.94-1.64l-0.27-1.73l-1.84-1.24     l-0.69-0.54l-1.93,0.23l0.81,1.66l2.49,1.03l0.45,0.38l-0.47,0.31l0.19,1.36l-1.08,0.61l-0.99-0.11l-0.71-0.78l1.58-0.1     l0.36-0.63l-3.77-1.94l-0.38-0.96l-1.26,1.44l-1.48-0.12l-1.85,3.09l-0.31,1.17l-1.38,0.29l-2.07,0.25l-1.31-0.44l-0.65-2.41     l0.31-1.22l2.05-0.71l2.35,0.2l0.13-1.3l-0.99-0.12l0.1-2.02l2.26-0.63l1.35-2.47l1.64-0.47l1.53,0.04l0.55-0.06l-0.55-2.11     l-1.74,0.95l-0.83-1.53l-1.08-0.03l-0.33-1.07l0.75-1.05l1.96-1.05l0.42-1.01c-8.68-6.02-19.49-9.03-30.8-7.71     c-9.8,1.15-18.49,5.38-25.24,11.63l2.26-0.28l1.06,0.44l1.94,0.19l0.23,0.72l3.03-0.24l-0.52-0.92l-2.68,0.24l0.56-0.66     l-0.3-0.69l-2.42,0.28l2.41-2.27l2.52-0.3l1.38,1.49l1.98-0.12l1.05-1.29l0.94,0.34l-1.44,1.8c0,0-2.26,0.3-2.15,0.29     c0.11-0.01,0.37,1.53,0.37,1.53l2.73-0.4l0.21-0.77l1.88-0.34l0.09-1.14l-1.13-0.06l0.25-1.05l0.82-0.36l2.98-0.19l-1.46,1.67     l0.39,1.12l1.74,0.07l-0.35-2.06l1.53-1.05l2.85-0.68l4.42,1.37l0.19,1.6l1.37,0.18l-0.52,1.34l-1.9,0.22l-0.39,1.5l-4.45-0.51     l3.19-2.21l-1.43-0.95l-2.89,0.71l-0.23,0.3l-0.01,0L627,13.21l-0.74,0.98l-1.38,0.27l0.2,0.68l0.51,0.15l0.01,0.23l-1.12,0.3     l-0.01,0.66l-1.07,0.18l-0.35-1.29l-1.87,0.82L617.45,19l0.64,1.59l1.2,0.6l2.26,0.04l0.3,2.53l1.02-0.28l0.71-2.09l2.27-1.02     l-0.35-3.03l1.2-1.15l3.28,0.37l0.01,2.04l0.85-0.1l2.21-1.42l0.42,2.62l1.83,0.83l0.11,1.57l-1.57,0.74l0.17,0.51l2.07,0.66     l0.09,1.08l-0.56,0.11c0-0.02-0.01-0.03-0.01-0.03l-2.58-0.48l-0.2-0.78l0.67-0.59l-0.08-0.72l-0.81-0.11l-0.11,0.7l-1.34,0.37     l-0.15-0.03l0.01,0.08l-0.47,0.12l-0.48-0.73l-0.47-0.15l-0.97,0.11l-0.4,0.42l0.09,0.81l0.87,0.18l0.84,0.02l-0.18,0.11     l-0.65,0.92l-0.38-0.38l-0.75-0.1l-1.76,2.09l0.28,0.18l-2.73,1.96l-2.42,3.18l-0.04,1.3l-2.54,2.13l-1.21,1.53l0.47,2.73     l-2-0.66l-0.17-1.61l-5.27,0.63l-2.57,1.7l-0.93,2.33l-0.26,1.78l0.96,1.59l2.17,0.02l3.16-2.69l0.43,1.1l-0.81,2.09l2.65,0.14     l0.74,3.99l3.64,0.19l1.95-2.88l2.82,0.24l1.12,1.22l2.62-0.46l-0.02-0.79l1.53,0.53l1.93,2.37l2.82-0.29l1.26,1.7l0.4,2.21     l3.26,0.82l3.94-0.42l1.38,1.75l1.81,0.36l-0.16,1.6l-1.62,2.65l0.07,5.44l-1.57,1.57l-2.57,0.22l-0.68,1.58l0.96,2.71     l-2.37,3.89l-0.7,1.74l-2.51,1.59l-1.71,0.47l0.02,0.75l1.26,0.21l-0.06,0.81l-0.97,1.18l0.76,0.76l1.32-0.12l0.04,1.02     l-0.23,1.05l-0.02,0.83l2.14,1.41l-0.16,0.88l-2.66,0.26l-2.92-2l-2.49-3.38l-0.12-3.53l-1.81-1.89l0.22-3.6l-0.96-0.16     l-0.89-7.65c0,0-2.83-1.66-2.98-1.64c-0.14,0.02-1.41-0.18-1.41-0.18l-0.43-1.41l-3.87-3.84l0.15-1.57l-0.18-2.5l2.14-1.9     l-0.66-2.75l-3.45,0.14l-3.03-2.73l-1.96-0.3l-1.25-0.08l0.02-1.13l-1.58-0.04l0.07,0.63l-4.02-0.52l-1.84-2.22l0.5-1.23     l-2.89-3.31l-0.74-2.59l-1,0.12l0.63,2.52l2.02,2.44l-0.07,1.06l-1.47-0.05l-2.13-2.83l-0.41-3.54l-1.96-0.68l-0.3-2.54     c-1.67,5.64-2.25,11.7-1.52,17.9c2.88,24.63,25.26,42.32,49.9,39.44c13.96-1.63,25.7-9.54,32.71-20.56l-1.47,0.17l-0.35-2.97     l-1.98-2.1l-0.42-3.57l-1.45-1.15l-0.29-1.47l1.28-3.35l-3.79-5.16l-0.07-3.8l-2.85,0.04l-1.17-0.92l-1.89,0.22l-0.86,1.01     l-3.34,0.39l-0.08,0.32l-1.86,0.22l-4.84-4.37l-0.4-3.79l0.67-0.35l0.1-1.47l-1.01,0.12l-0.59-1.48l4.52-4.13l-0.3-2.53     l2.26-1.62l0.99-0.02l1.99-0.23l1.46-1.02l4.96-0.97l0.3,2.56L668.95,30.54z M654.56,16.07l0.33-0.67l1.43-0.47l0.58,1.74     l0.93,1.17l0.58,0.54l0.99,0.26l-0.77,1.17l-1.71,0.36l-1.3,0.15l-0.03-1.55l1.05-0.35l-0.18-0.71l-1.08-0.52l-0.76-0.39     L654.56,16.07z M652.47,19.14l0.72-1.53l1.17-0.42l0.91,0.27l0.03,0.97l-1.68,1.51l-1.04,0.12L652.47,19.14z M628.84,27.47     l-0.92,0.18l-0.03-0.65l0.36-0.57l0.61,0.38L628.84,27.47z M631.97,25.95l-0.63,0.12l-0.05,0.63l-0.46,0.36l-0.78,0.16     c-0.05-0.18-0.08-0.32-0.08-0.32l-0.3,0.04l-0.08-0.66l1.28-0.15l0.18-0.7l0.51-0.07l0.59,0.04L631.97,25.95z M631.97,25.95"></path>
		</g>
	</g>
	<g>
		<polygon class="st0" points="102.54,1.52 84.78,50.27 79.8,1.52 53.16,1.52 31.14,50.31 30.47,1.52 3.58,1.52 7.82,91.16     7.83,91.49 35.43,91.49 60.45,36.22 66.16,91.49 93.76,91.49 129.35,1.52   "></polygon>
		<path class="st0" d="M178.63,0c-14.51,0-26.72,4.13-36.28,12.26c-9.56,8.14-15.7,19.66-18.26,34.25    c-1.83,10.45-1.29,19.29,1.61,26.26c2.9,6.99,7.46,12.17,13.53,15.4c6.06,3.22,14.24,4.85,24.32,4.85    c9.92,0,18.65-1.89,25.95-5.61c7.3-3.72,13.39-9,18.08-15.7c4.69-6.69,7.99-15.37,9.82-25.81c2.52-14.41,0.42-25.78-6.26-33.8    C204.47,4.07,193.53,0,178.63,0z M166.25,71.68c-5.62,0-9.78-1.94-12.36-5.76c-2.6-3.84-3.12-10.3-1.57-19.18    c1.57-8.98,4.39-15.5,8.38-19.37c3.98-3.86,8.75-5.81,14.2-5.81c5.66,0,9.87,1.91,12.5,5.67c2.65,3.78,3.25,9.9,1.8,18.17    c-1.73,9.87-4.56,16.8-8.41,20.58C176.96,69.77,172.06,71.68,166.25,71.68z"></path>
		<path class="st0" d="M305.26,3.73c-4.27-1.47-10.75-2.21-19.28-2.21h-46.27l-15.76,89.96h28.4l6.35-36.24h2.15    c2.43,0,4.51,0.67,6.18,1.99c1.22,1.01,2.46,3.28,3.69,6.74l10.05,27.51h31.89l-8.98-26.32c-0.43-1.32-1.41-3.21-2.93-5.62    c-1.54-2.45-2.74-4.01-3.66-4.77c-1.18-0.98-3.07-1.98-5.63-2.95c3.78-0.9,6.89-2.01,9.28-3.31c4.11-2.25,7.59-5.22,10.35-8.83    c2.76-3.62,4.61-7.98,5.48-12.97c1-5.73,0.45-10.67-1.64-14.68C312.83,8.01,309.57,5.22,305.26,3.73z M264.84,20.23h11.84    c4.92,0,8.16,0.75,9.65,2.22c1.47,1.45,1.96,3.59,1.48,6.34c-0.33,1.87-1.19,3.56-2.56,5c-1.36,1.44-2.97,2.35-4.79,2.7    c-3.71,0.8-6.22,1.21-7.45,1.21h-11.23L264.84,20.23z"></path>
		<polygon class="st0" points="364.65,1.52 336.37,1.52 320.61,91.49 391.95,91.49 395.92,68.82 352.86,68.82   "></polygon>
		<path class="st0" d="M495.78,28.87c-0.51-5.47-2.06-10.33-4.61-14.46c-2.56-4.14-6.2-7.36-10.82-9.57    c-4.62-2.2-11.06-3.32-19.15-3.32h-41.27l-15.76,89.96h41.39c4.92,0,10.62-0.82,16.95-2.45c4.66-1.18,9.3-3.59,13.79-7.16    c4.49-3.56,8.34-8.04,11.44-13.31c3.1-5.27,5.52-12.78,7.19-22.31C496.01,40.17,496.29,34.32,495.78,28.87z M444.55,22.42h6.6    c7,0,11.76,1.71,14.15,5.09c2.41,3.4,2.8,9.85,1.17,19.17c-1.24,7.07-2.83,12.24-4.74,15.38c-1.89,3.12-4.17,5.33-6.76,6.57    c-2.6,1.25-6.8,1.88-12.49,1.88h-6.36L444.55,22.42z"></path>
	</g>
	<g>
		<path class="st0" d="M22.36,113.71c5,0.01,9.17,1.68,12.49,4.98c3.32,3.29,4.98,7.46,4.98,12.5c-0.01,6.12-2.14,11.28-6.37,15.44    c-4.22,4.18-9.49,6.26-15.78,6.24c-5.37-0.01-9.66-1.64-12.87-4.83c-3.21-3.22-4.82-7.42-4.81-12.61c0.01-4,0.97-7.66,2.91-11.02    c1.94-3.33,4.61-5.95,8.02-7.85C14.35,114.66,18.16,113.71,22.36,113.71 M22.27,117.21c-3.55,0-6.73,0.77-9.51,2.33    c-2.8,1.54-4.99,3.74-6.64,6.6c-1.63,2.86-2.44,5.9-2.44,9.13c-0.01,2.73,0.58,5.19,1.76,7.36c1.17,2.17,2.8,3.83,4.88,4.99    c2.08,1.16,4.52,1.73,7.34,1.73c3.33,0.01,6.42-0.8,9.27-2.4c2.84-1.61,5.09-3.85,6.72-6.72c1.63-2.86,2.46-5.96,2.46-9.3    c0-4.42-1.54-7.91-4.61-10.51C28.93,118.3,25.85,117.21,22.27,117.21"></path>
		<path class="st0" d="M69.67,113.79c4.99,0.01,9.16,1.65,12.48,4.95c3.33,3.31,4.99,7.48,4.98,12.51    c-0.01,6.13-2.15,11.29-6.37,15.45c-4.23,4.17-9.5,6.25-15.78,6.23c-5.37,0-9.66-1.62-12.86-4.83c-3.22-3.21-4.82-7.4-4.81-12.6    c0.01-4,0.98-7.68,2.91-11.02c1.94-3.34,4.6-5.96,8.01-7.86C61.67,114.73,65.47,113.79,69.67,113.79 M69.59,117.29    c-3.55,0-6.74,0.77-9.52,2.31c-2.79,1.56-5,3.75-6.63,6.62c-1.63,2.85-2.45,5.89-2.45,9.12c-0.01,2.74,0.58,5.2,1.75,7.37    c1.18,2.18,2.81,3.83,4.89,4.99c2.07,1.16,4.52,1.73,7.34,1.73c3.33,0,6.41-0.8,9.27-2.4c2.86-1.61,5.1-3.85,6.72-6.72    c1.64-2.87,2.47-5.96,2.47-9.29c0.01-4.42-1.54-7.92-4.61-10.52C76.24,118.36,73.17,117.29,69.59,117.29"></path>
		<polygon class="st0" points="99.07,114.77 102.72,114.78 100.67,129.92 119.73,129.96 121.81,114.81 125.42,114.81 120.33,152.09     116.69,152.07 119.25,133.48 100.14,133.46 97.67,152.05 93.98,152.04   "></polygon>
		<path class="st0" d="M168.69,114.88l12.42,37.3l-3.82-0.01l-4.05-12.2l-15.75-0.01l-6.97,12.17l-4.14-0.01l21.46-37.23H168.69z     M167.51,122.69l-7.93,13.73l12.5,0.01L167.51,122.69z"></path>
		<path class="st0" d="M193.97,114.91l7.95,0.01c5.04,0,8.9,0.67,11.59,1.99c2.69,1.33,4.84,3.39,6.49,6.18    c1.64,2.78,2.45,5.95,2.45,9.52c0,3.79-0.94,7.31-2.81,10.54c-1.86,3.23-4.16,5.55-6.88,6.95c-2.73,1.4-6.78,2.1-12.17,2.09H188.9    L193.97,114.91z M197.18,118.51l-4.1,30.05l3.26,0.01c5.01,0,8.33-0.12,9.98-0.4c2.49-0.4,4.58-1.2,6.28-2.38    c1.71-1.19,3.17-2.97,4.38-5.35c1.23-2.37,1.83-4.96,1.83-7.77c0.01-2.96-0.67-5.54-2.04-7.76c-1.37-2.22-3.24-3.88-5.61-4.97    c-2.04-0.96-5.46-1.44-10.31-1.44L197.18,118.51z"></path>
		<polygon class="st0" points="231.71,114.96 235.44,114.97 244.63,144.54 261.95,115.01 266.06,115.01 244.22,152.27     243.37,152.27   "></polygon>
		<polygon class="st0" points="293.99,115.06 293.45,118.68 276.81,118.66 275.14,130.87 291.78,130.89 291.31,134.47     274.64,134.45 272.69,148.74 289.36,148.76 288.94,152.33 268.46,152.31 273.54,115.03   "></polygon>
		<path class="st0" d="M304.38,115.08l9.35,0.01c3.31,0,5.69,0.34,7.12,0.96c1.43,0.64,2.59,1.65,3.5,3.04    c0.88,1.4,1.32,3.01,1.32,4.86c-0.01,2.01-0.53,3.88-1.59,5.6c-1.05,1.73-2.49,3.01-4.32,3.88c-1.81,0.87-4.21,1.3-7.18,1.3    l11.2,17.65l-4.23-0.01l-11.18-17.65h-2.95l-2.39,17.64l-3.74-0.01L304.38,115.08z M307.63,118.68l-1.67,12.39l4.26,0.01    c3.16,0.01,5.24-0.11,6.23-0.37c1.63-0.4,2.95-1.2,3.94-2.38c1-1.19,1.52-2.64,1.52-4.37c0-1.94-0.69-3.34-2.09-4.22    c-1.08-0.7-3.03-1.05-5.82-1.05L307.63,118.68z"></path>
		<polygon class="st0" points="332.97,115.11 355.18,115.15 354.69,118.68 345.33,118.66 340.73,152.41 336.99,152.41     341.58,118.66 332.49,118.65   "></polygon>
		<polygon class="st0" points="361.51,115.15 365.24,115.17 360.17,152.43 356.42,152.43   "></polygon>
		<path class="st0" d="M392.94,122.1l-3.52,0.87c-0.47-1.57-1.24-2.81-2.31-3.71c-1.08-0.92-2.24-1.38-3.49-1.38    c-1.37,0-2.51,0.48-3.38,1.4c-0.87,0.94-1.29,2.2-1.29,3.75c-0.01,1.4,0.45,2.83,1.38,4.34c0.56,0.95,1.94,2.42,4.12,4.42    c2.27,2.07,3.87,3.99,4.76,5.78c0.91,1.77,1.36,3.51,1.34,5.21c0,1.81-0.5,3.56-1.48,5.23c-1,1.68-2.32,2.99-3.99,3.95    c-1.67,0.96-3.44,1.45-5.31,1.45c-2.37,0-4.43-0.79-6.18-2.31c-1.73-1.52-2.99-3.75-3.74-6.69l3.44-1.17    c0.54,2.23,1.42,3.9,2.63,4.98c1.21,1.08,2.61,1.62,4.19,1.62c1.8,0.01,3.36-0.65,4.66-1.99c1.29-1.34,1.94-2.99,1.94-4.93    c0.01-1.44-0.36-2.83-1.09-4.21c-0.72-1.38-2.15-3.03-4.3-4.96c-2.28-2.09-3.76-3.69-4.46-4.81c-1.12-1.86-1.69-3.83-1.68-5.89    c0-2.55,0.84-4.65,2.5-6.31c1.67-1.67,3.72-2.49,6.18-2.49c2.08,0,3.93,0.66,5.54,1.98C391,117.56,392.19,119.51,392.94,122.1"></path>
		<polygon class="st0" points="403.64,115.22 407.39,115.23 402.31,152.5 398.56,152.49   "></polygon>
		<polygon class="st0" points="443.56,115.28 447.2,115.28 442.11,152.57 441.3,152.57 420.51,123.77 416.55,152.51 412.87,152.51     417.96,115.24 418.76,115.24 439.6,144.07   "></polygon>
		<path class="st0" d="M492.63,123.37l-2.98,2.21c-1.88-2.45-4.07-4.34-6.59-5.66c-2.51-1.32-5.09-1.98-7.74-1.98    c-2.96-0.01-5.82,0.79-8.55,2.39c-2.73,1.58-4.88,3.71-6.44,6.35c-1.57,2.64-2.36,5.48-2.36,8.5c-0.01,4.1,1.44,7.6,4.36,10.49    c2.93,2.89,6.48,4.33,10.68,4.33c2.51,0,4.92-0.5,7.23-1.54c2.31-1.02,4.16-2.37,5.6-4.1c1.45-1.7,2.49-3.81,3.14-6.33    l-13.61-0.03l0.01-3.66l18.1,0.03c-0.39,5.71-2.43,10.34-6.16,13.89c-3.72,3.53-8.34,5.3-13.89,5.3    c-5.7-0.01-10.33-1.75-13.87-5.22c-3.56-3.48-5.33-7.82-5.32-13.06c0-3.74,0.95-7.24,2.83-10.46c1.87-3.23,4.46-5.78,7.74-7.65    c3.28-1.85,6.81-2.79,10.61-2.79C482.28,114.4,488.02,117.4,492.63,123.37"></path>
		<path class="st0" d="M539.82,122.31l-3.52,0.88c-0.47-1.57-1.23-2.81-2.31-3.73c-1.08-0.91-2.25-1.36-3.48-1.36    c-1.39-0.01-2.51,0.46-3.38,1.4c-0.88,0.94-1.31,2.19-1.31,3.76c0,1.38,0.46,2.83,1.39,4.34c0.57,0.95,1.95,2.42,4.13,4.42    c2.27,2.07,3.87,3.99,4.75,5.77c0.9,1.79,1.35,3.53,1.35,5.24c0,1.82-0.49,3.55-1.49,5.21c-0.99,1.68-2.32,3-3.99,3.97    c-1.67,0.95-3.43,1.44-5.3,1.43c-2.38,0-4.43-0.76-6.18-2.29c-1.74-1.52-2.99-3.75-3.74-6.7l3.44-1.16    c0.54,2.23,1.42,3.9,2.62,4.98c1.22,1.08,2.62,1.64,4.2,1.64c1.81,0,3.36-0.68,4.66-2c1.3-1.34,1.94-2.97,1.94-4.94    c0-1.44-0.35-2.84-1.08-4.21c-0.73-1.38-2.16-3.03-4.31-4.95c-2.28-2.1-3.77-3.71-4.46-4.84c-1.13-1.85-1.69-3.81-1.68-5.86    c0-2.56,0.82-4.66,2.5-6.34c1.66-1.64,3.72-2.47,6.19-2.47c2.07,0,3.91,0.66,5.53,1.98C537.88,117.78,539.07,119.74,539.82,122.31    "></path>
		<path class="st0" d="M568.67,114.53c5.01,0.01,9.17,1.66,12.5,4.96c3.32,3.31,4.97,7.48,4.96,12.5c0,6.13-2.13,11.29-6.35,15.46    c-4.23,4.16-9.48,6.25-15.78,6.23c-5.37-0.02-9.65-1.62-12.86-4.85c-3.22-3.21-4.82-7.4-4.82-12.59    c0.01-4.01,0.99-7.69,2.92-11.03c1.93-3.34,4.6-5.96,8.02-7.86C560.67,115.47,564.47,114.53,568.67,114.53 M568.6,118.03    c-3.56,0-6.73,0.77-9.52,2.33c-2.78,1.55-5,3.74-6.63,6.61c-1.63,2.85-2.46,5.89-2.46,9.12c-0.01,2.74,0.58,5.21,1.75,7.37    c1.18,2.18,2.82,3.84,4.89,5c2.08,1.14,4.52,1.73,7.35,1.74c3.33,0,6.42-0.81,9.27-2.42c2.85-1.6,5.09-3.85,6.71-6.7    c1.63-2.87,2.45-5.96,2.46-9.3c0.01-4.42-1.53-7.91-4.62-10.5C575.25,119.12,572.19,118.03,568.6,118.03"></path>
		<polygon class="st0" points="598.16,115.52 601.9,115.52 597.27,149.27 613.34,149.31 612.89,152.81 593.09,152.79   "></polygon>
		<path class="st0" d="M624.11,115.55l3.67,0.01l-2.97,21.33c-0.4,2.85-0.59,4.85-0.59,6.07c-0.01,2.33,0.64,4.12,1.95,5.39    c1.3,1.28,3.12,1.9,5.49,1.9c1.68,0.01,3.14-0.29,4.43-0.87c1.3-0.57,2.39-1.39,3.31-2.49c0.92-1.07,1.57-2.36,1.97-3.77    c0.67-2.49,1.27-5.64,1.75-9.44l2.42-18.07l3.68,0.01l-2.58,18.82l-0.61,4.62c-0.36,2.14-0.78,3.97-1.27,5.48    c-0.48,1.51-1.13,2.85-1.91,4.01c-0.78,1.16-1.68,2.12-2.68,2.86c-0.99,0.75-2.21,1.33-3.64,1.75c-1.42,0.43-3.01,0.65-4.78,0.65    c-3.61-0.01-6.4-0.95-8.35-2.8c-1.96-1.87-2.93-4.33-2.93-7.42c0.01-0.86,0.05-1.81,0.17-2.89l0.59-4.35L624.11,115.55z"></path>
		<polygon class="st0" points="656.13,115.6 678.34,115.62 677.86,119.14 668.49,119.14 663.9,152.89 660.15,152.89 664.74,119.14     655.65,119.13   "></polygon>
		<polygon class="st0" points="684.67,115.64 688.41,115.66 683.33,152.93 679.58,152.92   "></polygon>
		<path class="st0" d="M716.86,114.75c5,0.01,9.17,1.67,12.49,4.96c3.33,3.29,4.98,7.46,4.97,12.5c-0.01,6.14-2.13,11.29-6.35,15.46    c-4.23,4.16-9.5,6.25-15.79,6.23c-5.36-0.03-9.65-1.62-12.87-4.85c-3.22-3.21-4.82-7.4-4.81-12.6c0-4,0.97-7.68,2.9-11.02    c1.95-3.35,4.62-5.96,8.03-7.85C708.85,115.69,712.66,114.75,716.86,114.75 M716.77,118.25c-3.56,0-6.74,0.77-9.51,2.33    c-2.79,1.54-5,3.75-6.63,6.59c-1.64,2.86-2.46,5.9-2.47,9.13c0,2.75,0.6,5.2,1.77,7.38c1.18,2.17,2.81,3.83,4.89,4.99    c2.08,1.14,4.53,1.73,7.35,1.73c3.34,0.01,6.42-0.79,9.28-2.4c2.84-1.6,5.08-3.86,6.7-6.72c1.65-2.86,2.47-5.96,2.47-9.29    c0-4.42-1.53-7.91-4.61-10.5C723.43,119.34,720.36,118.25,716.77,118.25"></path>
		<polygon class="st0" points="771.9,115.77 775.53,115.77 770.44,153.06 769.64,153.06 748.86,124.26 744.89,153.01 741.21,153.01     746.28,115.74 747.1,115.74 767.95,144.57   "></polygon>
		<path class="st0" d="M804.02,122.72l-3.5,0.87c-0.46-1.57-1.24-2.79-2.32-3.7c-1.08-0.94-2.23-1.39-3.49-1.39    c-1.38,0-2.51,0.46-3.38,1.4c-0.87,0.92-1.3,2.18-1.3,3.77c0,1.38,0.46,2.81,1.38,4.33c0.57,0.94,1.94,2.43,4.14,4.42    c2.25,2.07,3.85,3.99,4.74,5.78c0.9,1.78,1.35,3.53,1.35,5.24c0,1.81-0.49,3.54-1.48,5.21c-0.99,1.67-2.31,2.97-3.98,3.95    c-1.67,0.96-3.43,1.44-5.31,1.44c-2.38,0-4.44-0.77-6.17-2.29c-1.74-1.53-3-3.75-3.76-6.71l3.43-1.16    c0.53,2.24,1.42,3.9,2.63,4.97c1.22,1.09,2.6,1.62,4.2,1.62c1.8,0.01,3.36-0.65,4.64-1.99c1.3-1.34,1.95-2.97,1.95-4.94    c0-1.44-0.34-2.83-1.09-4.21c-0.72-1.38-2.16-3.03-4.31-4.95c-2.27-2.1-3.77-3.7-4.46-4.82c-1.12-1.86-1.69-3.83-1.69-5.89    c0.01-2.55,0.83-4.66,2.51-6.32c1.65-1.67,3.72-2.49,6.17-2.49c2.08,0,3.92,0.66,5.55,1.99    C802.09,118.18,803.28,120.12,804.02,122.72"></path>
	</g>
</g>
</svg>
